<svg xmlns="http://www.w3.org/2000/svg" version="1.1" xmlns:xlink="http://www.w3.org/1999/xlink" xmlns:svgjs="http://svgjs.com/svgjs" width="512" height="512" x="0" y="0" viewBox="0 0 68 68" style="enable-background:new 0 0 512 512" xml:space="preserve" class=""><g><path fill="#DBDBDB" d="M57.554 13.845v40.14a7.65 7.65 0 0 1-7.65 7.65H9.764c-4.23 0-7.65-3.42-7.65-7.65v-40.14c0-4.23 3.42-7.65 7.65-7.65h40.14a7.65 7.65 0 0 1 7.65 7.65z" data-original="#dbdbdb" class=""></path><path fill="#FFFFFF" d="M53.224 17.174v31.62c0 .95-.77 1.73-1.73 1.73H8.174c-.96 0-1.73-.78-1.73-1.73v-31.62c0-.96.77-1.74 1.73-1.74h43.32c.96 0 1.73.78 1.73 1.74z" data-original="#ffffff" class=""></path><circle cx="8.345" cy="11.034" r="2.021" fill="#386FA4" data-original="#488ff7" class="" opacity="1"></circle><path d="M27.55 9.801H14.625a.5.5 0 1 1 0-1H27.55a.5.5 0 1 1 0 1zM21.701 12.87h-7.075a.5.5 0 1 1 0-1h7.075a.5.5 0 1 1 0 1z" fill="#000000" data-original="#000000" class=""></path><circle cx="9.861" cy="55.073" r="2.382" fill="#386FA4" data-original="#488ff7" class="" opacity="1"></circle><circle cx="17.514" cy="55.073" r="2.382" fill="#133C55" data-original="#304056" class="" opacity="1"></circle><circle cx="25.167" cy="55.073" r="2.382" fill="#84D2F6" data-original="#b9b9b9" class="" opacity="1"></circle><path fill="#133C55" d="M53.224 47.025v1.77c0 .95-.78 1.73-1.73 1.73H8.174c-.96 0-1.73-.78-1.73-1.73v-1.15l14.94-19.91c.72-.96 2.14-1.01 2.93-.1l6.89 7.92c.78.9 2.18.86 2.91-.08l3.15-4.08a1.88 1.88 0 0 1 2.94-.05z" data-original="#304056" class="" opacity="1"></path><circle cx="51.809" cy="47.728" r="14.077" fill="#386FA4" data-original="#488ff7" class="" opacity="1"></circle><path fill="#DBDBDB" d="M59.394 47.733c0 .83-.68 1.5-1.5 1.5h-4.59v4.58c0 .83-.67 1.5-1.5 1.5s-1.5-.67-1.5-1.5v-4.58h-4.58c-.83 0-1.5-.67-1.5-1.5s.67-1.5 1.5-1.5h4.58v-4.59c0-.83.67-1.5 1.5-1.5s1.5.67 1.5 1.5v4.59h4.59c.82 0 1.5.67 1.5 1.5z" data-original="#dbdbdb" class=""></path><circle cx="32.706" cy="23.038" r="3" fill="#386FA4" data-original="#488ff7" class="" opacity="1"></circle></g></svg>